<mxfile host="app.diagrams.net" agent="Mozilla/5.0 (Windows NT 10.0; Win64; x64) AppleWebKit/537.36 (KHTML, like Gecko) Chrome/134.0.0.0 Whale/4.31.304.16 Safari/537.36" version="26.2.13">
  <diagram name="페이지-1" id="jw8IQPoCw4GdPcp-_bTI">
    <mxGraphModel dx="1680" dy="901" grid="1" gridSize="10" guides="1" tooltips="1" connect="1" arrows="1" fold="1" page="1" pageScale="1" pageWidth="827" pageHeight="1169" math="0" shadow="0">
      <root>
        <mxCell id="0" />
        <mxCell id="1" parent="0" />
        <mxCell id="0wmGPp9-1j7nRuPfBWGD-57" value="" style="whiteSpace=wrap;html=1;aspect=fixed;fillColor=light-dark(#FFFFFF,#FFFFFF);" vertex="1" parent="1">
          <mxGeometry x="24" y="48" width="780" height="780" as="geometry" />
        </mxCell>
        <mxCell id="0wmGPp9-1j7nRuPfBWGD-4" value="" style="whiteSpace=wrap;html=1;aspect=fixed;strokeWidth=2;strokeColor=light-dark(#000000,#FF0000);fillColor=light-dark(#FFFFFF,#FFFFFF);" vertex="1" parent="1">
          <mxGeometry x="94" y="65" width="220" height="220" as="geometry" />
        </mxCell>
        <mxCell id="0wmGPp9-1j7nRuPfBWGD-1" value="&lt;font style=&quot;color: light-dark(rgb(0, 0, 0), rgb(0, 0, 0));&quot;&gt;&lt;b&gt;Mock Service&lt;/b&gt;&lt;/font&gt;" style="rounded=0;whiteSpace=wrap;html=1;strokeColor=light-dark(#000000,#333333);strokeWidth=2;fillColor=light-dark(#FFFFFF,#E8F0FE);" vertex="1" parent="1">
          <mxGeometry x="144" y="105" width="120" height="60" as="geometry" />
        </mxCell>
        <mxCell id="0wmGPp9-1j7nRuPfBWGD-2" value="&lt;div style=&quot;text-align: left;&quot;&gt;&lt;font style=&quot;font-size: 13px; color: light-dark(rgb(0, 0, 0), rgb(211, 84, 0));&quot;&gt;&lt;b style=&quot;&quot;&gt;* Prometheus로 System Log를 수집하도록 처리 *&lt;/b&gt;&lt;/font&gt;&lt;/div&gt;&lt;div style=&quot;text-align: left;&quot;&gt;&lt;font style=&quot;font-size: 13px; color: light-dark(rgb(0, 0, 0), rgb(211, 84, 0));&quot;&gt;&lt;b&gt;* PostgreSQL을 제외한 모든 요소들은 Filebeat를 가지고 있음(EFK조합) *&amp;nbsp;&lt;/b&gt;&lt;/font&gt;&lt;/div&gt;&lt;div style=&quot;text-align: left;&quot;&gt;&lt;span style=&quot;background-color: transparent;&quot;&gt;&lt;font style=&quot;font-size: 13px; color: light-dark(rgb(0, 0, 0), rgb(211, 84, 0));&quot;&gt;&lt;b style=&quot;&quot;&gt;&amp;nbsp;* Alertmanager로 System Log 문제를 Slack에 올리도록 처리함 *&amp;nbsp;&lt;/b&gt;&lt;/font&gt;&lt;/span&gt;&lt;/div&gt;" style="text;html=1;align=center;verticalAlign=middle;whiteSpace=wrap;rounded=0;fillColor=light-dark(#FFFFFF,#FFFFFF);" vertex="1" parent="1">
          <mxGeometry x="355" y="65" width="430" height="90" as="geometry" />
        </mxCell>
        <mxCell id="0wmGPp9-1j7nRuPfBWGD-3" value="&lt;font style=&quot;color: light-dark(rgb(0, 0, 0), rgb(0, 0, 0));&quot;&gt;&lt;b&gt;Agent&lt;/b&gt;&lt;/font&gt;" style="rounded=0;whiteSpace=wrap;html=1;strokeColor=light-dark(#000000,#333333);strokeWidth=2;fillColor=light-dark(#FFFFFF,#E8F0FE);" vertex="1" parent="1">
          <mxGeometry x="144" y="203" width="120" height="60" as="geometry" />
        </mxCell>
        <mxCell id="0wmGPp9-1j7nRuPfBWGD-5" value="" style="endArrow=classic;html=1;rounded=0;exitX=0.5;exitY=1;exitDx=0;exitDy=0;entryX=0.5;entryY=0;entryDx=0;entryDy=0;strokeColor=light-dark(#000000,#333333);strokeWidth=2;" edge="1" parent="1" source="0wmGPp9-1j7nRuPfBWGD-1" target="0wmGPp9-1j7nRuPfBWGD-3">
          <mxGeometry relative="1" as="geometry">
            <mxPoint x="399" y="445" as="sourcePoint" />
            <mxPoint x="499" y="445" as="targetPoint" />
          </mxGeometry>
        </mxCell>
        <mxCell id="0wmGPp9-1j7nRuPfBWGD-6" value="&lt;font style=&quot;color: light-dark(rgb(0, 0, 0), rgb(0, 0, 0)); background-color: light-dark(rgb(255, 255, 255), rgb(255, 255, 255));&quot;&gt;REST API 이용한 LOG 전송&lt;/font&gt;" style="edgeLabel;resizable=0;html=1;;align=center;verticalAlign=middle;" connectable="0" vertex="1" parent="0wmGPp9-1j7nRuPfBWGD-5">
          <mxGeometry relative="1" as="geometry" />
        </mxCell>
        <mxCell id="0wmGPp9-1j7nRuPfBWGD-11" value="동일 컨테이너" style="text;html=1;align=center;verticalAlign=middle;resizable=0;points=[];autosize=1;strokeColor=none;fillColor=none;" vertex="1" parent="1">
          <mxGeometry x="159" y="65" width="90" height="30" as="geometry" />
        </mxCell>
        <mxCell id="0wmGPp9-1j7nRuPfBWGD-12" value="&lt;font style=&quot;color: light-dark(rgb(0, 0, 0), rgb(0, 0, 0));&quot;&gt;&lt;b&gt;Logging Service&lt;/b&gt;&lt;/font&gt;&lt;div&gt;&lt;font style=&quot;color: light-dark(rgb(0, 0, 0), rgb(0, 0, 0));&quot;&gt;- Save Log and Distribute&lt;/font&gt;&lt;/div&gt;" style="rounded=0;whiteSpace=wrap;html=1;fillColor=light-dark(#FFFFFF,#E8F0FE);strokeColor=light-dark(#000000,#333333);strokeWidth=2;" vertex="1" parent="1">
          <mxGeometry x="114" y="315" width="180" height="60" as="geometry" />
        </mxCell>
        <mxCell id="0wmGPp9-1j7nRuPfBWGD-13" value="" style="endArrow=classic;html=1;rounded=0;exitX=0.5;exitY=1;exitDx=0;exitDy=0;entryX=0.5;entryY=0;entryDx=0;entryDy=0;strokeColor=light-dark(#000000,#333333);strokeWidth=2;" edge="1" parent="1" source="0wmGPp9-1j7nRuPfBWGD-3" target="0wmGPp9-1j7nRuPfBWGD-12">
          <mxGeometry relative="1" as="geometry">
            <mxPoint x="399" y="445" as="sourcePoint" />
            <mxPoint x="499" y="445" as="targetPoint" />
          </mxGeometry>
        </mxCell>
        <mxCell id="0wmGPp9-1j7nRuPfBWGD-14" value="&lt;font style=&quot;&quot;&gt;Kafka (all-log-topic)&lt;/font&gt;" style="edgeLabel;resizable=0;html=1;;align=center;verticalAlign=middle;labelBackgroundColor=light-dark(#FFFFFF,#FFFFFF);fontColor=light-dark(#000000,#000000);" connectable="0" vertex="1" parent="0wmGPp9-1j7nRuPfBWGD-13">
          <mxGeometry relative="1" as="geometry">
            <mxPoint y="11" as="offset" />
          </mxGeometry>
        </mxCell>
        <mxCell id="0wmGPp9-1j7nRuPfBWGD-15" value="" style="endArrow=classic;html=1;rounded=0;exitX=1;exitY=0.5;exitDx=0;exitDy=0;entryX=0;entryY=0.5;entryDx=0;entryDy=0;strokeColor=light-dark(#000000,#333333);strokeWidth=2;" edge="1" parent="1" source="0wmGPp9-1j7nRuPfBWGD-12" target="0wmGPp9-1j7nRuPfBWGD-17">
          <mxGeometry relative="1" as="geometry">
            <mxPoint x="399" y="445" as="sourcePoint" />
            <mxPoint x="509" y="330" as="targetPoint" />
            <Array as="points">
              <mxPoint x="519" y="345" />
              <mxPoint x="519" y="359" />
            </Array>
          </mxGeometry>
        </mxCell>
        <mxCell id="0wmGPp9-1j7nRuPfBWGD-16" value="{log-index}" style="edgeLabel;resizable=0;html=1;;align=center;verticalAlign=middle;labelBackgroundColor=light-dark(#FFFFFF,#FFFFFF);fontColor=light-dark(#000000,#000000);" connectable="0" vertex="1" parent="0wmGPp9-1j7nRuPfBWGD-15">
          <mxGeometry relative="1" as="geometry">
            <mxPoint x="-16" as="offset" />
          </mxGeometry>
        </mxCell>
        <mxCell id="0wmGPp9-1j7nRuPfBWGD-17" value="&lt;font style=&quot;color: light-dark(rgb(0, 0, 0), rgb(0, 0, 0));&quot;&gt;&lt;b&gt;ElasticSearch&lt;/b&gt;&lt;/font&gt;&lt;div&gt;&lt;font style=&quot;color: light-dark(rgb(0, 0, 0), rgb(0, 0, 0));&quot;&gt;(로그 저장용)&lt;/font&gt;&lt;/div&gt;" style="rounded=0;whiteSpace=wrap;html=1;fillColor=light-dark(#FFFFFF,#E8F0FE);strokeColor=light-dark(#000000,#333333);strokeWidth=2;" vertex="1" parent="1">
          <mxGeometry x="649" y="329" width="120" height="60" as="geometry" />
        </mxCell>
        <mxCell id="0wmGPp9-1j7nRuPfBWGD-18" value="&lt;font style=&quot;color: light-dark(rgb(0, 0, 0), rgb(0, 0, 0));&quot;&gt;&lt;b&gt;SMS Service&lt;/b&gt;&lt;/font&gt;" style="rounded=0;whiteSpace=wrap;html=1;fillColor=light-dark(#FFFFFF,#E8F0FE);strokeColor=light-dark(#000000,#333333);strokeWidth=2;" vertex="1" parent="1">
          <mxGeometry x="114" y="485" width="115" height="60" as="geometry" />
        </mxCell>
        <mxCell id="0wmGPp9-1j7nRuPfBWGD-19" value="" style="endArrow=classic;html=1;rounded=0;exitX=0.5;exitY=1;exitDx=0;exitDy=0;entryX=0.5;entryY=0;entryDx=0;entryDy=0;strokeColor=light-dark(#000000,#333333);strokeWidth=2;" edge="1" parent="1" source="0wmGPp9-1j7nRuPfBWGD-12" target="0wmGPp9-1j7nRuPfBWGD-18">
          <mxGeometry relative="1" as="geometry">
            <mxPoint x="399" y="445" as="sourcePoint" />
            <mxPoint x="499" y="445" as="targetPoint" />
            <Array as="points">
              <mxPoint x="204" y="405" />
              <mxPoint x="172" y="405" />
            </Array>
          </mxGeometry>
        </mxCell>
        <mxCell id="0wmGPp9-1j7nRuPfBWGD-20" value="&lt;font style=&quot;&quot;&gt;Kafka (sms-topic)&lt;/font&gt;" style="edgeLabel;resizable=0;html=1;;align=center;verticalAlign=middle;labelBackgroundColor=light-dark(#FFFFFF,#FFFFFF);fontColor=light-dark(#000000,#000000);" connectable="0" vertex="1" parent="0wmGPp9-1j7nRuPfBWGD-19">
          <mxGeometry relative="1" as="geometry">
            <mxPoint y="46" as="offset" />
          </mxGeometry>
        </mxCell>
        <mxCell id="0wmGPp9-1j7nRuPfBWGD-21" value="&lt;font style=&quot;color: light-dark(rgb(0, 0, 0), rgb(0, 0, 0));&quot;&gt;&lt;b&gt;Email Service&lt;/b&gt;&lt;/font&gt;" style="rounded=0;whiteSpace=wrap;html=1;fillColor=light-dark(#FFFFFF,#E8F0FE);strokeColor=light-dark(#000000,#333333);strokeWidth=2;" vertex="1" parent="1">
          <mxGeometry x="482" y="485" width="115" height="60" as="geometry" />
        </mxCell>
        <mxCell id="0wmGPp9-1j7nRuPfBWGD-22" value="" style="endArrow=classic;html=1;rounded=0;exitX=0.5;exitY=1;exitDx=0;exitDy=0;entryX=0.5;entryY=0;entryDx=0;entryDy=0;strokeColor=light-dark(#000000,#333333);strokeWidth=2;" edge="1" parent="1" source="0wmGPp9-1j7nRuPfBWGD-12" target="0wmGPp9-1j7nRuPfBWGD-21">
          <mxGeometry relative="1" as="geometry">
            <mxPoint x="214" y="385" as="sourcePoint" />
            <mxPoint x="182" y="455" as="targetPoint" />
            <Array as="points">
              <mxPoint x="204" y="405" />
              <mxPoint x="540" y="405" />
            </Array>
          </mxGeometry>
        </mxCell>
        <mxCell id="0wmGPp9-1j7nRuPfBWGD-23" value="Kafka (email-topic)" style="edgeLabel;resizable=0;html=1;;align=center;verticalAlign=middle;labelBackgroundColor=light-dark(#FFFFFF,#FFFFFF);fontColor=light-dark(#000000,#000000);" connectable="0" vertex="1" parent="0wmGPp9-1j7nRuPfBWGD-22">
          <mxGeometry relative="1" as="geometry">
            <mxPoint x="135" y="55" as="offset" />
          </mxGeometry>
        </mxCell>
        <mxCell id="0wmGPp9-1j7nRuPfBWGD-24" value="&lt;font style=&quot;color: light-dark(rgb(0, 0, 0), rgb(0, 0, 0));&quot;&gt;&lt;b&gt;Redis&lt;/b&gt;&lt;/font&gt;&lt;div&gt;&lt;font style=&quot;color: light-dark(rgb(0, 0, 0), rgb(0, 0, 0));&quot;&gt;(부서, 직원 정보 캐싱)&lt;/font&gt;&lt;/div&gt;" style="rounded=0;whiteSpace=wrap;html=1;fillColor=light-dark(#FFFFFF,#E8F0FE);strokeColor=light-dark(#000000,#333333);strokeWidth=2;" vertex="1" parent="1">
          <mxGeometry x="298" y="581" width="115" height="60" as="geometry" />
        </mxCell>
        <mxCell id="0wmGPp9-1j7nRuPfBWGD-25" value="&lt;font style=&quot;color: light-dark(rgb(0, 0, 0), rgb(0, 0, 0));&quot;&gt;&lt;b&gt;PostgreSQL&lt;br&gt;&lt;/b&gt;&lt;/font&gt;&lt;div&gt;&lt;font style=&quot;color: light-dark(rgb(0, 0, 0), rgb(0, 0, 0));&quot;&gt;(부서, 직원 정보)&lt;/font&gt;&lt;/div&gt;" style="rounded=0;whiteSpace=wrap;html=1;fillColor=light-dark(#FFFFFF,#E8F0FE);strokeColor=light-dark(#000000,#333333);strokeWidth=2;" vertex="1" parent="1">
          <mxGeometry x="298" y="450" width="115" height="60" as="geometry" />
        </mxCell>
        <mxCell id="0wmGPp9-1j7nRuPfBWGD-26" value="" style="endArrow=classic;html=1;rounded=0;exitX=1;exitY=0.5;exitDx=0;exitDy=0;entryX=0;entryY=0.5;entryDx=0;entryDy=0;strokeWidth=2;strokeColor=light-dark(#000000,#333333);" edge="1" parent="1" source="0wmGPp9-1j7nRuPfBWGD-18" target="0wmGPp9-1j7nRuPfBWGD-24">
          <mxGeometry width="50" height="50" relative="1" as="geometry">
            <mxPoint x="429" y="465" as="sourcePoint" />
            <mxPoint x="479" y="415" as="targetPoint" />
            <Array as="points">
              <mxPoint x="260" y="515" />
              <mxPoint x="260" y="611" />
            </Array>
          </mxGeometry>
        </mxCell>
        <mxCell id="0wmGPp9-1j7nRuPfBWGD-27" value="" style="endArrow=classic;html=1;rounded=0;exitX=0;exitY=0.5;exitDx=0;exitDy=0;entryX=1;entryY=0.5;entryDx=0;entryDy=0;strokeWidth=2;strokeColor=light-dark(#000000,#333333);" edge="1" parent="1" source="0wmGPp9-1j7nRuPfBWGD-21" target="0wmGPp9-1j7nRuPfBWGD-24">
          <mxGeometry width="50" height="50" relative="1" as="geometry">
            <mxPoint x="239" y="525" as="sourcePoint" />
            <mxPoint x="304" y="525" as="targetPoint" />
            <Array as="points">
              <mxPoint x="450" y="515" />
              <mxPoint x="450" y="611" />
            </Array>
          </mxGeometry>
        </mxCell>
        <mxCell id="0wmGPp9-1j7nRuPfBWGD-28" value="" style="endArrow=classic;html=1;rounded=0;strokeWidth=2;strokeColor=light-dark(#000000,#333333);entryX=0.5;entryY=1;entryDx=0;entryDy=0;exitX=0.5;exitY=0;exitDx=0;exitDy=0;" edge="1" parent="1" source="0wmGPp9-1j7nRuPfBWGD-24" target="0wmGPp9-1j7nRuPfBWGD-25">
          <mxGeometry relative="1" as="geometry">
            <mxPoint x="350" y="590" as="sourcePoint" />
            <mxPoint x="352" y="480" as="targetPoint" />
          </mxGeometry>
        </mxCell>
        <mxCell id="0wmGPp9-1j7nRuPfBWGD-29" value="캐시 Miss시 조회" style="edgeLabel;resizable=0;html=1;;align=center;verticalAlign=middle;fontColor=light-dark(#000000,#000000);labelBackgroundColor=light-dark(#FFFFFF,#FFFFFF);" connectable="0" vertex="1" parent="0wmGPp9-1j7nRuPfBWGD-28">
          <mxGeometry relative="1" as="geometry">
            <mxPoint y="-10" as="offset" />
          </mxGeometry>
        </mxCell>
        <mxCell id="0wmGPp9-1j7nRuPfBWGD-30" value="&lt;font style=&quot;color: light-dark(rgb(0, 0, 0), rgb(0, 0, 0));&quot;&gt;&lt;b&gt;ErrorHandler&lt;/b&gt;&lt;/font&gt;" style="rounded=0;whiteSpace=wrap;html=1;fillColor=light-dark(#FFFFFF,#E8F0FE);strokeColor=light-dark(#000000,#333333);strokeWidth=2;" vertex="1" parent="1">
          <mxGeometry x="288.5" y="705" width="126" height="60" as="geometry" />
        </mxCell>
        <mxCell id="0wmGPp9-1j7nRuPfBWGD-38" value="" style="endArrow=classic;html=1;rounded=0;entryX=0.5;entryY=1;entryDx=0;entryDy=0;exitX=0.5;exitY=1;exitDx=0;exitDy=0;strokeWidth=2;strokeColor=light-dark(#000000,#333333);" edge="1" parent="1" source="0wmGPp9-1j7nRuPfBWGD-30" target="0wmGPp9-1j7nRuPfBWGD-17">
          <mxGeometry relative="1" as="geometry">
            <mxPoint x="189" y="805" as="sourcePoint" />
            <mxPoint x="499" y="485" as="targetPoint" />
            <Array as="points">
              <mxPoint x="352" y="805" />
              <mxPoint x="709" y="805" />
            </Array>
          </mxGeometry>
        </mxCell>
        <mxCell id="0wmGPp9-1j7nRuPfBWGD-39" value="5회 재송신 후 실패 시" style="edgeLabel;resizable=0;html=1;;align=center;verticalAlign=middle;labelBackgroundColor=light-dark(#FFFFFF,#FFFFFF);fontColor=light-dark(#000000,#000000);" connectable="0" vertex="1" parent="0wmGPp9-1j7nRuPfBWGD-38">
          <mxGeometry relative="1" as="geometry">
            <mxPoint x="-230" y="10" as="offset" />
          </mxGeometry>
        </mxCell>
        <mxCell id="0wmGPp9-1j7nRuPfBWGD-41" value="{fail-log-index}" style="edgeLabel;resizable=0;html=1;;align=center;verticalAlign=middle;labelBackgroundColor=light-dark(#FFFFFF,#FFFFFF);fontColor=light-dark(#000000,#000000);" connectable="0" vertex="1" parent="1">
          <mxGeometry x="639" y="805" as="geometry" />
        </mxCell>
        <mxCell id="0wmGPp9-1j7nRuPfBWGD-42" value="" style="endArrow=classic;html=1;rounded=0;exitX=0.75;exitY=1;exitDx=0;exitDy=0;entryX=0;entryY=0.25;entryDx=0;entryDy=0;strokeWidth=2;strokeColor=light-dark(#000000,#333333);" edge="1" parent="1" source="0wmGPp9-1j7nRuPfBWGD-18" target="0wmGPp9-1j7nRuPfBWGD-30">
          <mxGeometry relative="1" as="geometry">
            <mxPoint x="399" y="485" as="sourcePoint" />
            <mxPoint x="199" y="805" as="targetPoint" />
            <Array as="points">
              <mxPoint x="199" y="720" />
            </Array>
          </mxGeometry>
        </mxCell>
        <mxCell id="0wmGPp9-1j7nRuPfBWGD-43" value="실패 시&lt;br&gt;(error-topic)" style="edgeLabel;resizable=0;html=1;;align=center;verticalAlign=middle;labelBackgroundColor=light-dark(#FFFFFF,#FFFFFF);fontColor=light-dark(#000000,#000000);" connectable="0" vertex="1" parent="0wmGPp9-1j7nRuPfBWGD-42">
          <mxGeometry relative="1" as="geometry" />
        </mxCell>
        <mxCell id="0wmGPp9-1j7nRuPfBWGD-44" value="" style="endArrow=classic;html=1;rounded=0;exitX=0.25;exitY=1;exitDx=0;exitDy=0;entryX=1;entryY=0.25;entryDx=0;entryDy=0;strokeWidth=2;strokeColor=light-dark(#000000,#333333);" edge="1" parent="1" source="0wmGPp9-1j7nRuPfBWGD-21" target="0wmGPp9-1j7nRuPfBWGD-30">
          <mxGeometry relative="1" as="geometry">
            <mxPoint x="210" y="555" as="sourcePoint" />
            <mxPoint x="299" y="730" as="targetPoint" />
            <Array as="points">
              <mxPoint x="510" y="720" />
            </Array>
          </mxGeometry>
        </mxCell>
        <mxCell id="0wmGPp9-1j7nRuPfBWGD-45" value="실패 시&lt;br&gt;(error-topic)" style="edgeLabel;resizable=0;html=1;;align=center;verticalAlign=middle;labelBackgroundColor=light-dark(#FFFFFF,#FFFFFF);fontColor=light-dark(#000000,#000000);" connectable="0" vertex="1" parent="0wmGPp9-1j7nRuPfBWGD-44">
          <mxGeometry relative="1" as="geometry" />
        </mxCell>
        <mxCell id="0wmGPp9-1j7nRuPfBWGD-46" value="" style="endArrow=classic;html=1;rounded=0;exitX=0;exitY=0.75;exitDx=0;exitDy=0;strokeWidth=2;strokeColor=light-dark(#000000,#333333);" edge="1" parent="1" source="0wmGPp9-1j7nRuPfBWGD-30">
          <mxGeometry relative="1" as="geometry">
            <mxPoint x="399" y="485" as="sourcePoint" />
            <mxPoint x="130" y="460" as="targetPoint" />
            <Array as="points">
              <mxPoint x="89" y="750" />
              <mxPoint x="89" y="460" />
            </Array>
          </mxGeometry>
        </mxCell>
        <mxCell id="0wmGPp9-1j7nRuPfBWGD-47" value="SMS 재전송 요청" style="edgeLabel;resizable=0;html=1;;align=center;verticalAlign=middle;labelBackgroundColor=light-dark(#FFFFFF,#FFFFFF);fontColor=light-dark(#000000,#000000);" connectable="0" vertex="1" parent="0wmGPp9-1j7nRuPfBWGD-46">
          <mxGeometry relative="1" as="geometry">
            <mxPoint y="20" as="offset" />
          </mxGeometry>
        </mxCell>
        <mxCell id="0wmGPp9-1j7nRuPfBWGD-48" value="" style="endArrow=classic;html=1;rounded=0;exitX=1;exitY=0.75;exitDx=0;exitDy=0;strokeWidth=2;strokeColor=light-dark(#000000,#333333);" edge="1" parent="1" source="0wmGPp9-1j7nRuPfBWGD-30">
          <mxGeometry relative="1" as="geometry">
            <mxPoint x="299" y="760" as="sourcePoint" />
            <mxPoint x="580" y="460" as="targetPoint" />
            <Array as="points">
              <mxPoint x="640" y="750" />
              <mxPoint x="640" y="460" />
            </Array>
          </mxGeometry>
        </mxCell>
        <mxCell id="0wmGPp9-1j7nRuPfBWGD-49" value="Email 재전송 요청" style="edgeLabel;resizable=0;html=1;;align=center;verticalAlign=middle;labelBackgroundColor=light-dark(#FFFFFF,#FFFFFF);fontColor=light-dark(#000000,#000000);" connectable="0" vertex="1" parent="0wmGPp9-1j7nRuPfBWGD-48">
          <mxGeometry relative="1" as="geometry">
            <mxPoint x="-1" y="18" as="offset" />
          </mxGeometry>
        </mxCell>
        <mxCell id="0wmGPp9-1j7nRuPfBWGD-65" value="" style="edgeStyle=orthogonalEdgeStyle;rounded=0;orthogonalLoop=1;jettySize=auto;html=1;" edge="1" parent="1" source="0wmGPp9-1j7nRuPfBWGD-50" target="0wmGPp9-1j7nRuPfBWGD-51">
          <mxGeometry relative="1" as="geometry" />
        </mxCell>
        <mxCell id="0wmGPp9-1j7nRuPfBWGD-50" value="&lt;font style=&quot;color: light-dark(rgb(0, 0, 0), rgb(0, 0, 0));&quot;&gt;&lt;b&gt;Kibana&lt;/b&gt;&lt;br&gt;(로그 상세 검색)&lt;/font&gt;" style="rounded=0;whiteSpace=wrap;html=1;fillColor=light-dark(#FFFFFF,#E8F0FE);strokeColor=light-dark(#000000,#333333);strokeWidth=2;" vertex="1" parent="1">
          <mxGeometry x="439" y="171" width="126" height="42" as="geometry" />
        </mxCell>
        <mxCell id="0wmGPp9-1j7nRuPfBWGD-51" value="&lt;font style=&quot;color: light-dark(rgb(0, 0, 0), rgb(0, 0, 0));&quot;&gt;&lt;b&gt;Grafana&lt;br&gt;&lt;/b&gt;(전체 추이 분석)&lt;/font&gt;" style="rounded=0;whiteSpace=wrap;html=1;fillColor=light-dark(#FFFFFF,#E8F0FE);strokeColor=light-dark(#000000,#333333);strokeWidth=2;" vertex="1" parent="1">
          <mxGeometry x="439" y="256" width="126" height="42" as="geometry" />
        </mxCell>
        <mxCell id="0wmGPp9-1j7nRuPfBWGD-52" value="" style="endArrow=classic;html=1;rounded=0;exitX=0.5;exitY=0;exitDx=0;exitDy=0;entryX=1;entryY=0.5;entryDx=0;entryDy=0;strokeColor=light-dark(#000000,#333333);strokeWidth=2;" edge="1" parent="1" source="0wmGPp9-1j7nRuPfBWGD-17" target="0wmGPp9-1j7nRuPfBWGD-51">
          <mxGeometry relative="1" as="geometry">
            <mxPoint x="399" y="485" as="sourcePoint" />
            <mxPoint x="499" y="485" as="targetPoint" />
            <Array as="points">
              <mxPoint x="709" y="277" />
            </Array>
          </mxGeometry>
        </mxCell>
        <mxCell id="0wmGPp9-1j7nRuPfBWGD-54" value="" style="endArrow=classic;html=1;rounded=0;entryX=1;entryY=0.5;entryDx=0;entryDy=0;exitX=0.5;exitY=0;exitDx=0;exitDy=0;strokeColor=light-dark(#000000,#333333);strokeWidth=2;" edge="1" parent="1" source="0wmGPp9-1j7nRuPfBWGD-17" target="0wmGPp9-1j7nRuPfBWGD-50">
          <mxGeometry relative="1" as="geometry">
            <mxPoint x="709" y="329" as="sourcePoint" />
            <mxPoint x="565" y="211" as="targetPoint" />
            <Array as="points">
              <mxPoint x="709" y="192" />
            </Array>
          </mxGeometry>
        </mxCell>
        <mxCell id="0wmGPp9-1j7nRuPfBWGD-56" value="모든 시스템 로그 데이터&lt;br&gt;비지니스 로그 데이터" style="text;html=1;align=center;verticalAlign=middle;resizable=0;points=[];autosize=1;strokeColor=none;fillColor=none;fontColor=light-dark(#000000,#000000);" vertex="1" parent="1">
          <mxGeometry x="568" y="215" width="140" height="40" as="geometry" />
        </mxCell>
        <mxCell id="0wmGPp9-1j7nRuPfBWGD-63" value="" style="endArrow=classic;html=1;rounded=0;entryX=0.5;entryY=1;entryDx=0;entryDy=0;exitX=0.5;exitY=0;exitDx=0;exitDy=0;strokeWidth=2;strokeColor=light-dark(#000000,#333333);" edge="1" parent="1" source="0wmGPp9-1j7nRuPfBWGD-51" target="0wmGPp9-1j7nRuPfBWGD-50">
          <mxGeometry relative="1" as="geometry">
            <mxPoint x="550" y="410" as="sourcePoint" />
            <mxPoint x="650" y="410" as="targetPoint" />
          </mxGeometry>
        </mxCell>
        <mxCell id="0wmGPp9-1j7nRuPfBWGD-64" value="&lt;span style=&quot;background-color: light-dark(rgb(255, 255, 255), rgb(255, 255, 255));&quot;&gt;&lt;font style=&quot;color: light-dark(rgb(0, 0, 0), rgb(0, 0, 0));&quot;&gt;상세 로그 필요시&lt;/font&gt;&lt;/span&gt;" style="edgeLabel;resizable=0;html=1;;align=center;verticalAlign=middle;" connectable="0" vertex="1" parent="0wmGPp9-1j7nRuPfBWGD-63">
          <mxGeometry relative="1" as="geometry" />
        </mxCell>
      </root>
    </mxGraphModel>
  </diagram>
</mxfile>
